<svg xmlns="http://www.w3.org/2000/svg" width="35" height="34.136" viewBox="0 0 35 34.136">
  <path id="Path_33982" data-name="Path 33982" d="M153.818,107.44a17.5,17.5,0,0,0-5.531,34.106c.876.16,1.195-.379,1.195-.843,0-.416-.015-1.516-.024-2.977-4.868,1.058-5.895-2.345-5.895-2.345a4.635,4.635,0,0,0-1.943-2.56c-1.589-1.086.12-1.064.12-1.064a3.674,3.674,0,0,1,2.68,1.8,3.726,3.726,0,0,0,5.093,1.455,3.741,3.741,0,0,1,1.111-2.34c-3.886-.442-7.971-1.942-7.971-8.649a6.766,6.766,0,0,1,1.8-4.7,6.287,6.287,0,0,1,.172-4.631s1.469-.471,4.812,1.794a16.6,16.6,0,0,1,8.762,0c3.341-2.265,4.808-1.794,4.808-1.794a6.289,6.289,0,0,1,.175,4.631,6.754,6.754,0,0,1,1.8,4.7c0,6.723-4.092,8.2-7.991,8.635a4.178,4.178,0,0,1,1.188,3.241c0,2.34-.021,4.227-.021,4.8,0,.467.316,1.012,1.2.841a17.5,17.5,0,0,0-5.543-34.1Z" transform="translate(-136.32 -107.44)" fill="#131212" fill-rule="evenodd"/>
</svg>
