<svg id="xd-logo_logotyp.us" data-name="xd-logo@logotyp.us" xmlns="http://www.w3.org/2000/svg" width="58.205" height="56.75" viewBox="0 0 58.205 56.75">
  <path id="Path_33984" data-name="Path 33984" d="M10.307,0H47.9A10.3,10.3,0,0,1,58.205,10.307V46.443A10.3,10.3,0,0,1,47.9,56.75H10.307A10.3,10.3,0,0,1,0,46.443V10.307A10.3,10.3,0,0,1,10.307,0Z" fill="#470137"/>
  <g id="Group_255" data-name="Group 255" transform="translate(8.479 12.438)">
    <path id="Path_33985" data-name="Path 33985" d="M57.088,60.364l-7.276,12L57.573,85.1a.417.417,0,0,1,.049.291c-.024.1-.121.024-.267.049H51.8c-.388,0-.655-.024-.825-.267-.509-1.019-1.043-2.013-1.552-3.032-.509-.994-1.067-2.013-1.649-3.056S46.611,77,46.029,75.934h-.049c-.509,1.043-1.067,2.086-1.625,3.129s-1.116,2.086-1.649,3.1c-.558,1.019-1.116,2.061-1.673,3.056-.1.243-.291.267-.558.267H35.14c-.1,0-.17.049-.17-.073a.337.337,0,0,1,.049-.267l7.542-12.369L35.213,60.34c-.073-.1-.1-.194-.049-.243a.281.281,0,0,1,.243-.1h5.505a1.431,1.431,0,0,1,.34.049.688.688,0,0,1,.243.218c.461,1.043.994,2.086,1.552,3.129.582,1.043,1.14,2.061,1.746,3.08.582,1.019,1.116,2.037,1.625,3.08h.049c.509-1.067,1.043-2.11,1.576-3.129s1.091-2.037,1.649-3.056,1.091-2.061,1.625-3.056a.412.412,0,0,1,.146-.243.462.462,0,0,1,.315-.049h5.117a.223.223,0,0,1,.267.17c.024.024-.024.121-.073.17Z" transform="translate(-34.961 -57.886)" fill="#ff61f6"/>
    <path id="Path_33986" data-name="Path 33986" d="M140.507,79.348a12.057,12.057,0,0,1-5.214-1.091,8.455,8.455,0,0,1-3.662-3.3,10.494,10.494,0,0,1-1.334-5.529,9.96,9.96,0,0,1,1.334-5.117,10.071,10.071,0,0,1,3.856-3.759,12.405,12.405,0,0,1,6.136-1.407,4.331,4.331,0,0,1,.509.024c.218.024.461.024.752.049V51.555c0-.17.073-.267.243-.267h4.923a.217.217,0,0,1,.243.17V74.595c0,.437.024.922.048,1.455.049.509.073.994.1,1.407a.394.394,0,0,1-.243.388,18.522,18.522,0,0,1-3.953,1.164A21.392,21.392,0,0,1,140.507,79.348Zm2.377-4.85V63.827a6.2,6.2,0,0,0-.655-.121c-.267-.024-.534-.049-.8-.049a5.978,5.978,0,0,0-2.74.631,5.437,5.437,0,0,0-2.061,1.795,5.376,5.376,0,0,0-.8,3.08,6.758,6.758,0,0,0,.412,2.5,4.74,4.74,0,0,0,1.091,1.722,4.19,4.19,0,0,0,1.649.97,6.349,6.349,0,0,0,2.013.315c.364,0,.7-.024,1.019-.049A2.121,2.121,0,0,0,142.884,74.5Z" transform="translate(-107.175 -51.284)" fill="#ff61f6"/>
  </g>
</svg>
